<svg xmlns="http://www.w3.org/2000/svg" fill-rule="evenodd" stroke-linejoin="round" stroke-miterlimit="2" clip-rule="evenodd" viewBox="0 0 3000 2160" id="product-inspection"><g transform="matrix(2 0 0 2 -6400 0)"><rect width="1500" height="1080" x="3200" fill="none"></rect><g transform="translate(-424.34 -52.547) scale(1.0891)"><rect width="205.743" height="282.523" x="1513.87" y="2478.92" fill="#e1e3ee" transform="matrix(1.09089 -.62982 .62375 .36012 707.007 972.194)"></rect><rect width="205.743" height="282.523" x="1513.87" y="2478.92" fill="#e1e3ee" transform="matrix(1.09089 -.62982 .48356 .27918 866.434 1127.79)"></rect><g transform="matrix(-1.69201 0 0 1.69201 5794.74 -663.998)"><ellipse cx="877.721" cy="889.003" fill="#e1e3ee" rx="21.115" ry="9.004" transform="translate(-9.924 .883)"></ellipse><ellipse cx="877.721" cy="889.003" fill="#e1e3ee" rx="21.115" ry="9.004" transform="matrix(1.34909 0 0 1.24436 -300.985 -202.693)"></ellipse><g transform="rotate(-27.086 873.229 862.189)"><path fill="#D7A28E" d="M838.433,898.119C833.162,887.161 815.313,861.946 826.27,847.845C836.404,834.805 850.049,852.676 852.971,867.264C852.971,867.264 844.283,804.651 865.345,803.464C886.407,802.277 879.17,842.957 875.433,859.855C875.433,859.855 893.722,826.362 906.47,838.374C919.218,850.386 877.53,902.745 877.53,902.745C874.744,907.718 867.016,913.537 857.893,913.593C850.348,913.639 842.025,905.587 838.433,898.119Z" transform="translate(12.374 -23.201)"></path><path fill="#f2f3f7" d="M878.738,795.336C878.775,794.743 879.287,794.293 879.879,794.331C880.471,794.368 880.921,794.879 880.884,795.471C880.884,795.471 876.527,864.212 869.915,890.957C869.773,891.533 869.19,891.885 868.614,891.743C868.038,891.6 867.686,891.017 867.828,890.441C874.413,863.803 878.738,795.336 878.738,795.336Z"></path><path fill="#f2f3f7" d="M851.167 841.899C851.041 841.32 851.409 840.747 851.989 840.621 852.569 840.495 853.142 840.863 853.268 841.443 853.268 841.443 855.421 851.349 860.07 860.615 863.096 866.647 867.16 872.44 872.452 874.865 872.992 875.113 873.229 875.751 872.982 876.291 872.735 876.83 872.096 877.067 871.557 876.82 865.866 874.212 861.402 868.065 858.148 861.579 853.376 852.068 851.167 841.899 851.167 841.899zM874.738 862.478C874.186 862.696 873.561 862.426 873.342 861.875 873.123 861.323 873.393 860.698 873.945 860.479 873.945 860.479 896.89 851.407 905.683 833.186 905.941 832.651 906.584 832.427 907.119 832.685 907.653 832.943 907.878 833.586 907.62 834.12 898.498 853.021 874.738 862.478 874.738 862.478z"></path></g><g transform="matrix(-1 0 0 1 1779.75 8.42)"><path fill="#10243e" d="M890.496,864.055C903.226,863.912 899.717,872.701 907.727,877.88C915.065,882.625 914.901,892.996 903.139,895.137C891.378,897.278 881.4,896.939 873.266,894.478C858.592,890.037 861.515,879.578 870.899,876.523C878.665,873.996 881.049,864.16 890.496,864.055Z" transform="translate(8.56 .309)"></path><ellipse cx="901.391" cy="872.661" fill="#e1e3ee" rx="1.934" ry="1.863" transform="translate(-466.967 -452.088) scale(1.51916)"></ellipse><ellipse cx="906.34" cy="878.462" fill="#e1e3ee" rx="1.007" ry="1.354" transform="matrix(1.46885 0 0 1 -424.468 0)"></ellipse></g></g><g transform="translate(-335.967 -542.672) scale(1.55484)"><path fill="#10243e" d="M2900.74,502.321C2900.74,502.321 2911.43,528.521 2928.25,548.367C2945.07,568.213 2950.95,584.99 2931.2,601.761C2931.2,601.761 2943.07,625.671 2899.66,635.954C2856.25,646.238 2828.74,627.937 2819.37,612.743C2819.37,612.743 2780.56,582.941 2774.3,559.789C2768.04,536.636 2778.39,534.735 2785.95,514.397C2793.5,494.059 2900.74,502.321 2900.74,502.321Z" transform="rotate(-25.029 2862.249 518.83)"></path><path fill="#10243e" d="M2813.68,851.173C2813.68,851.173 2819.68,874.116 2813.68,880.608C2807.68,887.101 2793,893.081 2777.34,894.178C2763.64,895.138 2758.72,883.725 2770.8,874.184C2782.88,864.644 2790.94,861.134 2790.42,847.424L2813.68,851.173Z"></path><path fill="#4b61dc" d="M2796.27,662.985C2796.27,662.985 2777.96,813.385 2770.8,850.875C2770.8,850.875 2815.06,871.308 2843.47,853.172C2843.47,853.172 2858.61,722.795 2856.32,669.592L2796.27,662.985Z"></path><path fill="#10243e" d="M2795.29,671.015L2792.3,695.071C2792.3,695.071 2824.27,715.748 2856.23,705.385L2856.56,677.757L2795.29,671.015Z"></path><g transform="matrix(.96927 -.246 .24594 .969 -11.637 710.359)"><path fill="#10243e" d="M2813.68,851.173C2813.68,851.173 2819.68,874.116 2813.68,880.608C2807.68,887.101 2793,893.081 2777.34,894.178C2763.64,895.138 2758.72,883.725 2770.8,874.184C2782.88,864.644 2790.94,861.134 2790.42,847.424L2813.68,851.173Z"></path><path fill="#4b61dc" d="M2796.27,662.985C2796.27,662.985 2777.96,813.385 2770.8,850.875C2770.8,850.875 2815.06,871.308 2843.47,853.172C2843.47,853.172 2859.78,710.495 2860.73,655.47L2796.27,662.985Z"></path><path fill="#10243e" d="M2795.29,671.015L2791.42,707.789C2791.42,707.789 2825.51,710.07 2857.47,699.707L2859.97,667.699L2795.29,671.015Z" transform="translate(1.776 -11.248)"></path></g><path fill="#7887da" d="M2786.68,565.085C2778.28,579.094 2761.73,601.718 2754.35,606.173C2744.05,612.385 2716.54,592.63 2716.54,592.63C2716.54,592.63 2690.47,612.89 2694.11,634.889C2694.11,634.889 2715.74,658.064 2745.42,657.2C2775.11,656.335 2790.36,647.838 2807.12,616.563C2823.87,585.289 2821.39,571.917 2821.39,571.917L2786.68,565.085Z" transform="translate(4.667 -10.915)"></path><path fill="#ffdfc4" d="M2687.88,570.959C2687.88,570.959 2675.85,583.659 2683.61,592.463C2691.37,601.266 2701.76,597.252 2701.76,597.252L2704.06,577.14L2687.88,570.959Z" transform="rotate(-25.5 2718.079 593.794)"></path><path fill="#10243e" d="M2702.31,562.67C2702.31,562.67 2681.77,601.212 2678.26,608.693C2676.39,612.68 2674.73,619.656 2676.69,620.869C2678.41,621.932 2683.45,616.839 2685.18,614.039C2687.69,609.986 2709.56,566.856 2709.56,566.856C2709.56,566.856 2711.12,557.621 2702.31,562.67Z" transform="rotate(25.061 2707.961 587.079)"></path><path fill="#ffdfc4" d="M2705.77,611.871C2705.77,611.871 2721.11,604.506 2724.51,590.909C2724.51,590.909 2718.86,576.814 2715.61,570.346C2712.35,563.877 2702.25,563.349 2693.68,563.823C2684.23,564.346 2681.27,564.728 2681,570.195C2680.74,575.661 2692.53,575.63 2692.53,575.63C2692.53,575.63 2687.61,578.83 2689.23,584.235C2690.86,589.64 2698.42,587.504 2698.42,587.504C2698.42,587.504 2688.7,606.662 2705.77,611.871Z" transform="rotate(-25.5 2718.079 593.794)"></path><path fill="#10243e" d="M2776.96,576.541C2776.96,576.541 2770.81,600.021 2774.43,610.777C2778.05,621.533 2783.49,624.491 2786.34,621.413C2789.2,618.336 2786.34,602.466 2786.34,602.466L2776.96,576.541Z" transform="matrix(1.20851 0 0 1.19039 -568.854 -104.334)"></path><g><path fill="#7887da" d="M2868.77,530.171L2809.15,533.661C2809.15,533.661 2789.59,554.854 2789.99,572.75C2790.33,587.986 2797.86,602.076 2797.86,602.076L2786.14,664.039C2786.14,664.039 2825.85,681.784 2865.99,668.358C2906.13,654.933 2929.09,629.082 2929.09,629.082L2868.77,530.171Z" transform="translate(-254.067 -45.963) scale(1.08899)"></path><path fill="#10243e" d="M4121.24,295.853C4121.24,295.853 4100.69,338.632 4069.82,346.281C4038.95,353.93 4020.24,342.082 4023.24,323.063C4026.24,304.044 4121.24,295.853 4121.24,295.853Z" transform="translate(216.078 349.022) scale(.64315)"></path><path fill="#10243e" d="M2872.7,580.039L2881.97,597.365L2864.86,623.373C2867.63,646.447 2872.89,659.263 2888.35,668.246C2888.35,668.246 2921.19,658.393 2935.68,638.955L2894.46,567.833L2872.7,580.039Z"></path></g><g transform="translate(13.78 13.695)"><g transform="translate(-13.78 -13.695)"><path fill="#abb3db" d="M2857.76,601.726C2857.76,598.042 2855.05,595.051 2851.7,595.051L2804.33,595.051C2800.99,595.051 2798.27,598.042 2798.27,601.726L2798.27,675.017C2798.27,678.701 2800.99,681.692 2804.33,681.692L2851.7,681.692C2855.05,681.692 2857.76,678.701 2857.76,675.017L2857.76,601.726Z" transform="matrix(1 0 .17362 .90743 -103.315 55.085)"></path><path fill="#e1e3ee" d="M2820.97,590.241C2820.67,587.988 2822.2,586.201 2824.49,586.201C2826.77,586.201 2828.99,587.988 2829.55,590.241L2838.02,590.241C2838.52,590.241 2839.01,590.65 2839.11,591.154L2840.47,598.293C2840.57,598.797 2840.24,599.206 2839.73,599.206L2814.87,599.206C2814.37,599.206 2813.88,598.797 2813.79,598.293L2812.42,591.154C2812.32,590.65 2812.66,590.241 2813.16,590.241L2820.97,590.241Z"></path></g><path fill="#7887da" d="M2864.1,526.157C2864.1,526.157 2869.55,521.533 2894.59,542.535C2919.63,563.537 2938.59,580.518 2931.49,593.654C2924.39,606.79 2885,635.512 2871.36,642.381C2871.36,642.381 2843.42,628.585 2848.61,605.918L2880.78,582.379C2880.78,582.379 2868.04,576.933 2858.34,568.189C2848.63,559.444 2837.22,524.552 2864.1,526.157Z"></path><path fill="#ffdfc4" d="M2863.93,629.466C2863.93,629.466 2866.39,608.486 2852.35,607.71C2852.35,607.71 2844.18,610.14 2836.29,611.03C2830.95,611.633 2826.7,611.519 2822.59,612.264C2813.34,613.942 2820.12,620.473 2825.87,620.157C2825.87,620.157 2816.77,620.555 2819.01,626.222C2821.24,631.889 2831.7,629.558 2831.7,629.558C2831.7,629.558 2823.51,633.572 2826.17,635.633C2831.68,639.891 2856.6,633.303 2863.93,629.466Z"></path></g><g transform="translate(14.204 13.392)"><circle cx="4130.62" cy="301.881" r="60.72" fill="#ffdfc4" transform="translate(-1043.74 212.618) scale(.93182)"></circle><path fill="#10243e" d="M2853.61,447.95C2853.61,447.95 2836,415.803 2808.71,419.358C2781.42,422.912 2779.19,434.954 2779.19,434.954C2779.19,434.954 2756.69,420.666 2733.93,441.966C2711.18,463.267 2725.87,496.44 2754.95,492.371C2754.95,492.371 2767.39,510.461 2786.55,497.326C2786.55,497.326 2809.3,516.596 2822.16,492.698C2822.16,492.698 2824,504.683 2838.63,504.449C2838.63,504.449 2836.06,482.219 2852.51,487.238C2868.96,492.258 2863.79,513.749 2850.49,518.883C2848.15,535.688 2866.76,558.632 2893.73,539.037C2916.46,522.52 2904.94,494.373 2887.46,490.59C2887.46,490.59 2899.27,440.854 2853.61,447.95Z" transform="translate(-1.805 -9.352)"></path></g></g><g transform="translate(2929.67 -383.214) scale(1.25965)"><rect width="183.983" height="76.747" x="-569.548" y="1136.04" fill="#10243e" transform="matrix(.78546 -.45348 1.53776 .88783 -710.925 -399.168)"></rect><rect width="167.991" height="63.273" x="814.884" y="1165.91" fill="#7887da" transform="matrix(.86016 -.49661 .95293 .20609 -1283.58 1019.08)"></rect><rect width="167.991" height="63.273" x="814.884" y="1165.91" fill="#4b61dc" transform="matrix(.86016 -.49661 0 1.63561 -112.257 -634.568)"></rect><rect width="135.14" height="90.61" x="679.744" y="457.128" fill="#7887da" transform="matrix(.87331 .5042 0 1.14215 139.545 -80.55)"></rect><g transform="translate(448.842 471.234) scale(.40047)"><rect width="183.983" height="76.747" x="-569.548" y="1136.04" fill="#f2f3f7" transform="matrix(.50798 -.29328 1.1678 .67423 -420.27 -48.875)"></rect><rect width="167.991" height="63.273" x="814.884" y="1165.91" fill="#e1e3ee" transform="matrix(.55634 -.3212 0 1.63561 253.343 -709.371)"></rect><rect width="135.14" height="90.61" x="679.744" y="457.128" fill="#e1e3ee" transform="matrix(.6632 .3829 0 1.14215 166.26 101.728)"></rect></g><g transform="translate(411.415 492.843) scale(.40047)"><rect width="183.983" height="76.747" x="-569.548" y="1136.04" fill="#f2f3f7" transform="matrix(.50798 -.29328 1.1678 .67423 -420.27 -48.875)"></rect><rect width="167.991" height="63.273" x="814.884" y="1165.91" fill="#e1e3ee" transform="matrix(.55634 -.3212 0 1.63561 253.343 -709.371)"></rect><rect width="135.14" height="90.61" x="679.744" y="457.128" fill="#e1e3ee" transform="matrix(.6632 .3829 0 1.14215 166.26 101.728)"></rect></g><g transform="translate(373.987 555.896) scale(.40047)"><rect width="183.983" height="76.747" x="-569.548" y="1136.04" fill="#f2f3f7" transform="matrix(.50798 -.29328 1.1678 .67423 -420.27 -48.875)"></rect><rect width="167.991" height="63.273" x="814.884" y="1165.91" fill="#e1e3ee" transform="matrix(.55634 -.3212 0 1.63561 253.343 -709.371)"></rect><rect width="135.14" height="90.61" x="679.744" y="457.128" fill="#e1e3ee" transform="matrix(.6632 .3829 0 1.14215 166.26 101.728)"></rect></g><g transform="translate(447.307 554.123) scale(.40047)"><rect width="183.983" height="76.747" x="-569.548" y="1136.04" fill="#f2f3f7" transform="matrix(.50798 -.29328 1.1678 .67423 -420.27 -48.875)"></rect><rect width="167.991" height="63.273" x="814.884" y="1165.91" fill="#e1e3ee" transform="matrix(.55634 -.3212 0 1.63561 253.343 -709.371)"></rect><rect width="135.14" height="90.61" x="679.744" y="457.128" fill="#e1e3ee" transform="matrix(.6632 .3829 0 1.14215 166.26 101.728)"></rect></g><g transform="translate(484.734 491.956) scale(.40047)"><rect width="183.983" height="76.747" x="-569.548" y="1136.04" fill="#f2f3f7" transform="matrix(.50798 -.29328 1.1678 .67423 -420.27 -48.875)"></rect><rect width="167.991" height="63.273" x="814.884" y="1165.91" fill="#f2f3f7" transform="matrix(.55634 -.3212 0 1.63561 253.343 -709.371)"></rect><rect width="135.14" height="90.61" x="679.744" y="457.128" fill="#e1e3ee" transform="matrix(.6632 .3829 0 1.14215 166.26 101.728)"></rect></g><g transform="translate(527.256 557.951) scale(.40047)"><rect width="183.983" height="76.747" x="-569.548" y="1136.04" fill="#f2f3f7" transform="matrix(.50798 -.29328 1.1678 .67423 -420.27 -48.875)"></rect><rect width="167.991" height="63.273" x="814.884" y="1165.91" fill="#10243e" transform="matrix(.55634 -.3212 0 1.63561 253.343 -709.371)"></rect><rect width="135.14" height="90.61" x="679.744" y="457.128" fill="#e1e3ee" transform="matrix(.6632 .3829 0 1.14215 166.26 101.728)"></rect></g><rect width="167.991" height="63.273" x="814.884" y="1165.91" fill="#4b61dc" transform="matrix(.86016 -.49661 0 1.63561 5.763 -566.43)"></rect><path fill="#10243e" d="M982.875,1165.91L814.884,1165.91L860.736,1237.94L982.875,1237.94L982.875,1165.91Z" transform="matrix(.86016 -.49661 0 1.23677 5.763 -101.414)"></path><rect width="167.991" height="63.273" x="814.884" y="1165.91" fill="#7887da" transform="matrix(.86016 -.49661 .74872 .8045 -867.178 402.579)"></rect><rect width="135.14" height="90.61" x="679.744" y="457.128" fill="#7887da" transform="matrix(.87331 .5042 0 1.14215 -4.954 2.877)"></rect><rect width="167.991" height="63.273" x="814.884" y="1165.91" fill="#7887da" transform="matrix(-.70253 -.4056 -.6785 .7941 2070.26 340.154)"></rect><rect width="167.991" height="63.273" x="814.884" y="1165.91" fill="#7887da" transform="matrix(-.70253 -.4056 -.74872 .34187 2343.99 762.73)"></rect></g><g transform="translate(3164.55 -312.581) scale(1.25965)"><rect width="183.983" height="76.747" x="-569.548" y="1136.04" fill="#abb3db" transform="matrix(.78546 -.45348 1.53776 .88783 -710.925 -399.168)"></rect><rect width="167.991" height="63.273" x="814.884" y="1165.91" fill="#4b61dc" transform="matrix(.86157 -.49743 0 1.64929 4.384 -581.579)"></rect><path fill="#10243e" d="M982.875,1165.91L814.884,1165.91L830.531,1229.18L982.875,1229.18L982.875,1165.91Z" transform="matrix(.86157 -.49743 0 .68043 4.384 548.016)"></path><rect width="135.14" height="90.61" x="679.744" y="457.128" fill="#7887da" transform="matrix(.87331 .5042 0 1.1547 -4.954 -2.86)"></rect><rect width="135.14" height="90.61" x="679.744" y="457.128" fill="#e1e3ee" transform="matrix(.1817 .1049 0 .52736 511.9 582.319)"></rect><rect width="27.95" height="28.186" x="-527.846" y="1088.9" fill="#f2f3f7" transform="matrix(5.17024 -2.98504 .85878 .49582 2429.72 -1220.64)"></rect></g><g transform="translate(3216.43 -427.903) scale(1.25965)"><rect width="183.983" height="76.747" x="-569.548" y="1136.04" fill="#abb3db" transform="matrix(.78546 -.45348 1.53776 .88783 -710.925 -399.168)"></rect><rect width="167.991" height="63.273" x="814.884" y="1165.91" fill="#4b61dc" transform="matrix(.86157 -.49743 0 1.64929 4.396 -581.313)"></rect><rect width="135.14" height="90.61" x="679.744" y="457.128" fill="#7887da" transform="matrix(.87331 .5042 0 1.1547 -4.954 -2.86)"></rect><rect width="135.14" height="90.61" x="679.744" y="457.128" fill="#e1e3ee" transform="matrix(.1817 .1049 0 .52736 511.9 582.319)"></rect><rect width="27.95" height="28.186" x="-527.846" y="1088.9" fill="#f2f3f7" transform="matrix(5.17024 -2.98504 .85878 .49582 2429.72 -1220.64)"></rect></g><g transform="matrix(1.30397 0 0 -1.30397 925.052 835.4)"><circle cx="2144.31" cy="280.09" r="73.208" fill="#4b61dc" transform="translate(-18.874 -21.204)"></circle><path fill="#fff" d="M1025.79,599.847L1050.19,585.757L1074.6,599.847L1050.19,613.937L1025.79,599.847ZM1047.77,618.138L1047.77,646.318L1023.36,632.228L1023.36,604.047L1047.77,618.138ZM1077.02,604.047L1077.02,632.228L1052.62,646.318L1052.62,618.138L1077.02,604.047Z" transform="matrix(1.10496 0 0 -1.00961 965.018 881.537)"></path><path fill="#4b61dc" d="M2121.8,306.453C2123.12,303.438 2125.69,301.556 2128.48,301.556C2131.27,301.556 2133.84,303.438 2135.16,306.453C2144.91,328.716 2161.89,367.49 2161.89,367.49L2095.06,367.49C2095.06,367.49 2112.05,328.716 2121.8,306.453Z" transform="rotate(135 2145.84 303.844) scale(1 .81615)"></path></g></g></g></svg>